<mxfile host="app.diagrams.net" agent="Mozilla/5.0 (Windows NT 10.0; Win64; x64) AppleWebKit/537.36 (KHTML, like Gecko) Chrome/129.0.0.0 Safari/537.36" version="24.7.17">
  <diagram name="Page-1" id="isXhHKlj3dAz5Gf8FOK3">
    <mxGraphModel dx="1887" dy="839" grid="1" gridSize="10" guides="1" tooltips="1" connect="1" arrows="1" fold="1" page="1" pageScale="1" pageWidth="850" pageHeight="1100" math="0" shadow="0">
      <root>
        <mxCell id="0" />
        <mxCell id="1" parent="0" />
        <mxCell id="rdqZ7Gep4cqUkF6THJ5y-1" value="Amazon Route 53" style="sketch=0;outlineConnect=0;fontColor=#232F3E;gradientColor=none;strokeColor=#ffffff;fillColor=#232F3E;dashed=0;verticalLabelPosition=middle;verticalAlign=bottom;align=center;html=1;whiteSpace=wrap;fontSize=10;fontStyle=1;spacing=3;shape=mxgraph.aws4.productIcon;prIcon=mxgraph.aws4.route_53;" parent="1" vertex="1">
          <mxGeometry x="160" y="365" width="80" height="110" as="geometry" />
        </mxCell>
        <mxCell id="rdqZ7Gep4cqUkF6THJ5y-2" value="Amazon API Gateway" style="sketch=0;outlineConnect=0;fontColor=#232F3E;gradientColor=none;strokeColor=#ffffff;fillColor=#232F3E;dashed=0;verticalLabelPosition=middle;verticalAlign=bottom;align=center;html=1;whiteSpace=wrap;fontSize=10;fontStyle=1;spacing=3;shape=mxgraph.aws4.productIcon;prIcon=mxgraph.aws4.api_gateway;" parent="1" vertex="1">
          <mxGeometry x="320" y="365" width="80" height="110" as="geometry" />
        </mxCell>
        <mxCell id="rdqZ7Gep4cqUkF6THJ5y-3" value="Amazon Kinesis Data Firehose" style="sketch=0;outlineConnect=0;fontColor=#232F3E;gradientColor=none;strokeColor=#ffffff;fillColor=#232F3E;dashed=0;verticalLabelPosition=middle;verticalAlign=bottom;align=center;html=1;whiteSpace=wrap;fontSize=10;fontStyle=1;spacing=3;shape=mxgraph.aws4.productIcon;prIcon=mxgraph.aws4.kinesis_data_firehose;" parent="1" vertex="1">
          <mxGeometry x="480" y="365" width="80" height="120" as="geometry" />
        </mxCell>
        <mxCell id="rdqZ7Gep4cqUkF6THJ5y-4" value="Amazon S3" style="sketch=0;outlineConnect=0;fontColor=#232F3E;gradientColor=none;strokeColor=#ffffff;fillColor=#232F3E;dashed=0;verticalLabelPosition=middle;verticalAlign=bottom;align=center;html=1;whiteSpace=wrap;fontSize=10;fontStyle=1;spacing=3;shape=mxgraph.aws4.productIcon;prIcon=mxgraph.aws4.s3;" parent="1" vertex="1">
          <mxGeometry x="660" y="365" width="80" height="100" as="geometry" />
        </mxCell>
        <mxCell id="rdqZ7Gep4cqUkF6THJ5y-7" value="" style="shape=image;verticalLabelPosition=bottom;labelBackgroundColor=default;verticalAlign=top;aspect=fixed;imageAspect=0;image=data:image/png,iVBORw0KGgoAAAANSUhEUgAAAFkAAABZCAYAAABVC4ivAAAAAXNSR0IArs4c6QAAAARnQU1BAACxjwv8YQUAAAAJcEhZcwAADsMAAA7DAcdvqGQAADNKSURBVHhelX0JoGVFeeZ39ru//b3upjeafZUGWQSMLAZQETTiGsW4jHui2ZxJZkaJxpiZmMnoiBCUGGI0mpiIGyCLaAybLNKyNo0NDd30+ta7n3W+v84595573n0P87+uW3/VX1Wnzl9//Uudc29r9x5/UVTUWyhobYR6gJXANE1ompaUloOua6QnhSGg6/qq/VejCcj1VwNdNxJsOOiGnmDD4cXHX6U/566tMr62/eTzomI0TwzorjKOYRjQVrmQhlCNsRIY0vdFGLka1ZBFTvBhoHN+q4HMf2XQSF+dicZqi8iJaauMr/3iJadHWjCPYlhhqZhULweRVDVaBrI8E1zToqSUQr+B3MRwaY3rFD1tP6SZYWQkbQg9K8k9cqZdSh9GGw79BjJt3ciWc52l2BPAmDbAm8eOOy0ytACRLgzq30h2oBTv5QMTSHHpHw3tJyD4arRhucBKtGFtejCE9uv0W5EmqNkXoGHt8rlAivf3CMeIov5AK+ECkWJoDH1anEs5rVvWL1NeCRcYRlspFxA8W2YhQZbTVsIFsm3z7fLlFLK4wDBaj8kpSQgpcdgAPVqO0bmm/XZD8nxdCivR8u1SWK0/kThPIEvL9hvok8CwdgLZtllaWr8SbUDb54lpnqYUerTkL4UV2+VygWxdmlLI01JIy9n6fFmgh0ueqRfI90thWHlYLpCty9YLDKP1JTlpmyWmeQrZ8gC+CrOH5fm6FLLlPJ5vKzCsf1o3QMvUC+TxlcrD8nxdCtlyHh+Q5GGQH3SlwQQ4hQFmp5Bvl4X/1Pi/RpssrNRfYBht2FjD6lJIaflcIIu/qLoQyOICw2mDbQR+vX6/XruVcgHB8+UUsrjAarQs5Nut1C8/xjAaHbcQIQv5xnkQL9bQuCahtA8R0CeOxHcmbgYhxEVmjWorucKFnPnLlpfhMh7notIQXC6QzSMtoaeJ5fQvxVWbFAfd1CGJd6LoOizO3GRJY4qB00rmxlw+5PZUGobzQ6XluB5GHnyfE5eK1YDMdTRDedIdtwOPy+PZEVz40AJPTUhTG0P8YQk8BlM85eEpnhNZxRTPaxjus6kwxo9xxaQYZzTFRZfkI2QSPM3T+oDt4nqWM3io+oewzRIjWpPXkjnxUvRx4z/OnfV6qDMZScrjvEdZf5UYK+TxXx57IheUjThWGjYPc6hd30Wx4MAxLSwuLcGwuPKWCd/W0Il81DzSeDF2UO0HxmAShsmUUxik81bSdUiz3DgRryF1aa/8HMMkIlMtEtIArvomBYFMfyUbFcpvswvL12A5BQqRAdcj8ylWlmHDi1zVNH/dGHh35OZwGvFhTBbId1AbydLRCQI4XFmtFaBsF9GmRLco3mbgw+DKpZD2T3ORyPyYWTAyYatAvn+8TPH4KfN6TBPczITVQ66TV4e98ZlEeFt2C0XfgBPZvBkLvmHAJz9MEu3IoFZcfm8CMU6aiGwCvbHTPMtk1saVywYBymRw2+tQei0YbG/7Jty2B2OkCozVuPU8thJtltw6P7KSk73FYeNrapIr30j2FKzfJ9NGna3EkO+r8nhCClOfGVwuG3gGDNumndERtlvQWy3uTKpCkxqb6xeGZD5h2Ngpk4fTiKdMFhMY684Y8h18iwaOucPVDrlzOrYDfct6FE4+GvqGNSg5I9x1ySFM0rV/Y5xGRpKy9elCiAFKIa7JfHLA7HwE8vMLaTMULj3UvzhXIEzkThNI+w30F2n1HbiW2JgA1tIijO1Po/vkYxTxOTJf5/xLSetcX4XHTE4hf40+k2m1RZwz/QcGa5Y0VDSu5lwHfqEM8/QTsOaNF8M+9Tj4xQpXu8JWRu++sn0FlBlL+JylpVjsAfTLgmXxzG5VjVJa2mpgO6uPTH9pP7DIWZBSRFXnUu9yqbkjHPLCffppzN55B7r3P4DioQWMBMXBeQ/g8rGcyQKCL2NyTFCZgrRDZFFKm2K9aeyO34JN738LymduRXuujeCJvYBf524YciFmcruppClI6rK4uGHxKsT1cfcEZwojCoAqEWTiCZpONrYHvdr+9QnKYVhFp4qbGKILvUP3zS6hu3EG4foxaIf2onPjnYhuvgu15IFGvm8MwrtV1MW2Y04UDyieiJLkbMMEIYjV1ToeGuUSJj7w2xi54hLY9RZe+PrNaP5oG5zOC9SbXdU2HSPDCk4jc5NJffZaehhAp7fSpR4UdpKnKHI+vu9BOS1GIe6XdJG+2fGljyQlK0md3FOUXEMXAv/JExKfEquZVG6i571AHcj7lOASRtC2LdSPWYfqFRejdsJJCO9+FN2r/w5+5wDZQ3ctsQ29u+HwcoX8WXqPB8x12WYh3aOUCVndmTXIbtmBRpVh2waKJ26lipiEd9s9iH70PQSzj1HnNZW0SgrogaicjJMkwUveugtk63TP5c1S19NVCshoj5JB7xC63+XMPE6U3g2T5Jx0nCh/BtsZvEHX8OBqbmKA4xQyuZTQDhc/lHEDGm4jREfroG35cG0fftiCFZLeXELXaKOh7UVh+33wb/4ZFXkZ4bEb0Dq6SsPIeYQcV9QCk0im+Njia0fcwcPuT0Dq42XJwTBGe56n9J6suuU49HIstOYXWO+iUCioxz+D/YbjAlmpTmldGpcGGeoYFt1FHRVa+5anoW2W4eoVGG0XZrsLs+XCSvGkLHnoNRBxoRG1KFltlaKoqeoi0iwGXIZPBnXo79MGOk0X+mIHlsvru2SX4VDl8bqtCHaTAdreWUTNDvSCjcLkaG+e+TwLUjeMrj181AkUZeoLRnN9ndwX9RTEOa/QhXOLNaz70ufhnHYS9l715+je/EP6kg7ZJqu5XCcPG6tXpzZaDK7NOIwewJheIsNCMlLDwkbullqVUsvdQ2alvfTMmOlYtmZR5fDGeHPpzo1VIO0Bb8ug1xDIjVMtiIBogURjkXqAKt2a3EZ2I4C9/3nYRhfNdceh8r8/i6jQRfvr18P9t9tVP1Fpcs1Adif/lAqReWRMjkDvHoU2jMkCaSMBwX1Opkqpres2Nlz7/1A84xS88IlPI7z9VgSiitWdrRxwqIutROOfa3pKzUyEBUqviUJDh/W+y6AffRQKYRGdGttLF8kywpAOY7lllQslXWtpJqgYtra5oDwHYajNYMqU2IC0gMxtcwdVD8zDfegpRD++EyWD0j95LKwvfo5L00Xja9ch/P6PGeWacaRLUCxOFi3L5GH32GNypCaeN3x93KM6GKU+XIKF9dd8AaUztmLfn/05gttvg0uvQ+6O1+tB7wIr5AJZXKYtPka1q+HAiA3rBRfr/vWzwHEn0crTOBXYVjWXXJYlLcdZJ+qoQELGlOUWkHpRcRq5LiF/SLocAJlUHXoUn1O0DN5+zUGhU0fn9nvQ+sI1KEVzsKpHwLr+amiej8YNf4vglh8vk2QRKjkPkLmoR6QZyN5vn8nCpZy6EEjxLgca53LVdQfrKcmFl56M/Z/6C7i33AzaDTaUtv0rDRsjnwukuJokJz7K8OqZMQOlHQ3M3H0NgrVb4N+1E+Yjj3MdxI3qj5Edz9IXlHR5nEOWyRYZKWyI/DK6JmtoT1DvUlorEHU85wSYOWcrOpvWILzrQTQ/81coWrMolA9H8NUvodgO0PjqlxHcKuqC1iIjyaKaRLLUXHKSnOYCQ5ksMNCIuMsVGwk8LDEg2fjlq+GcehLmPvtXqH/3Rhpsk43kmqv4isRXoxkct91pYC1dtSdGfKzf0cX4/dfBn9qA7tfuQf1v/heirix10leNxywegMxkxtA/ogumXjQRHvC+tC53WUBPpWhiVvNhj9QQzLcxbdSwwPt5YdTCKR95N7rnXQLc/TA6n/o0tOo8SrUtaN3wJVSpp+s3XI/gh7fA4tg9JitJJqzAZIEU11OLyDnFuazOEJzD01Jz27FKuU+i3DiG2izU57JJxZ0Styp1rWRzSpJXDtQprZykMQ3DTYveCxmxaNCV81pw20tcPAdUHKg06zBHPBSndJjjZOgk0zjHHaVXMMoFOmwUwfnnILriUmhXXgH73W9RyXzr6xG9/GVojE/TYFPv0uzYZgOFkQ7CQoeeTBulogdv/Qgs3oPu+DDcJlzaBpeeiMaVE/dMk0h3VSAjYqe8nzJ1uhgbxcyEoQIpcwVS3KPf26WPWeJq0vwzMOmiS9dJp5vVbUbwua2Cts9E/7QjeZzCjtTTc2B9mrzWcjyaPwQr0HDI7aJGCawHDHNb3OKBTV93iRLJyfoOJbYK2y/C8QrwWI7WHIXiKy7FxPvfg7Hf/RAKH3gviu96JwrvuhLF970bY1e+A6OvvAStNRtgd6ZhNg0yWqeqKKLGvzVekc5eEUEhQsumr9xl5OoWENLwlrq8F85D82LpXR1EC2SSRFMJbrxvbPIq4buoCmHnMHEXqOuMxLigAQ2I/eqLYExNI3p+H/QuF2lqLawNG2AetpFpE4x1GyldGZxJXyf0TUmbmJbiQq+s3wy9thHWzDroR61FbfoI6Bech6Bagbf9Kfg/fwCLHQYO9MkN+rWa5qC1dhqTb3strNddgODwcfjP7YZ27zZoDz0Oc24Oocm5bSRjzzkBFe6+Q0/u5+7gGAwsfKPKu6LgsI31Gy+Ds3YTgiX62jv3o7b5WDiTvP65pzMO4BgPMth65sn4Va2ecU0EUfGIu1lJbwx5HmoPHH4Mec4uiXeRQtowzQMGIyNySuUXULvhGuhnnIric8/CWWJAUhyBvAomakJdUHVhHmcKEpWlIDsJaSylpk2fdYlSpnvolBdQeD5C5yUvYXxgovOPX0d47XVoMmKzDRtOl+F3ZQy1374MtTdfgBccupe3/xzhvz9I4/Uw/MUFjBy+Cdrxx6B97lbY57+MPvACZq+9Fft/8HUcXTJwQGOAEzKQqhVg/8nvo3T6+ehGDYTP7oBZmYDbtREcuQbRwVmUrv5H1O/8Xs/wyfxVFCuMlvmTd5qc/6jbie8te499rrL9MDUhuaSCbXMRuYLsS21Kb4NuE1kXcus1WNeie9dh6lK/drjd5WmJSgqXevE4k5QtMxf6Eo1aREkRVd+lQQoYEttc2Ar7W90Goz8PZbuAsszLsrGwgdJ+6SuB6jja9/0S0Se/CvfOu7FYa2DfeheLB5+G98OfoPtNegWP7aQBXYOxSy5Aw3Jg0H2T67ZoK1QESzZE1MGu76FVMtV5iVuy4IoUq8ixFfND/iX8SMt5UPVJnuI9SRYzxaKqFMivSNeigWF4alOPTX+F3sUpW9H67g9hPfwo5nwaDY3hLVmTyK8aKovLQU1SUtBb6aS+67uYMGig3Hnsn5jH1D76zB/7GKz1U1j85t9jz19/DeNUV5MMuw9GBdTfdBk2/8H74Mwt4tmP/jkqO55E5C6hUeGCleLIsTpvo2ONYoTGr/2JD2C0peP5j38cax96EPvHJrmgXYzQ4NU+9d+hnXg6lp59GHP/+j0c5o8gHDsMzjtfw6U+yF30DTRv+8lQSZaIT5xE0J5kpXcAfzEmCwiumzZ1YQNFvYrJ6/4G9gknY+9f/jX8796E+hLDYBpFU/kxcrF+vxTUaZj861cN0DtBG7XSWtTdRTRHGyjv03DEd7+B8LjN8L/9Dez7wr/R2B7C2qKFXQy513z2zxC8+nyM0X/ec/mH0dxkYISGtkjpCwo6WlXqbJe7oAmMV2fQ+cYXMFEbhU+ft/PF69DauJlulw+r4aL2uU/BOHErFn9+O/Z8/DM4zGG74lpM3PAp5i78v78RzRu/H7tw8h4z55114XRRtTl1IZDiMUVBX7wFluH0IuhAMfKjN0GJCkshAofbCAuoMbdqdMVG2G6EF1f5YNJGmRTOiydJ1SepOmXDG6NBYyBS4eSMjgtUymhTNTQ4pOZRYgr0pbmQnSYXxCxxm/NmGamF4RImupxP2cEsg40wKkNr6vA4b6PGyM6fpxtIL4Z3261SCIr0LrpteiweCha9FOEX9ZSMt5Z4WA7glNmmZrG6QPVRUHzgzb4oDONhbKtEEcqNSJ0QmPJ4Rw/UDTbUIxp2oy4OaOw6UmbymFqGjy4Dqg49EZf6mKINj6llM5ixdbqActBEi04XUPKQKqjJtk3uAshrBq0mLX+IaieCwxQpN4jGsGOg26DLSLsQcqwa9Wlzz/OcMq8xPY4CPZR5lkLeR4HBR7HlokQPJGT4XOf29qYmYVcqCFttzM824JZrsFzqX95P6BTox9LCUHiMwELJM+DTjZOdSe+djC/K6SiB9ogGSZIyTBk8zmNeSRLmpgyWPGZyciIlDYShKYOzOKMWWB0aI26LUiTHkbTK9FU1o0ymcxtR8HTemEEXT450DTKp4BrU42QU6+SsQONusAOTdaxne4N6LKIfLUanzeuE9CQMs4DIseHbhnI1ZcNZDILGdfqqXZcqoIs1I1XMPvyQeuAZHHYYaudfzIUgU9pNBGabEt2hQWOab8HUK3DOvwDeuAN9cRHdbc9yGBMTbUaBThGzZLZX4C6UB6YapZqBh2bKebYLh24iZ0je0LUTRspsBhgb56nmyENfkhOIizEhuwp9EDxbFkjKzApLAcY61Nt1btsmtz2Noc9cZ6Bi1ZkWYv0YUZ+KdQ/I1WDeQ61D92ue7bnQvcHkuipL6pgVQrpvlOIlCQ7IiO79O1F5cCeDBnoiv3MJZs54Kdpk2jx1coeC0GlQDsfGMHXBGaheejZVQwOL/3EXitu3o+wtUZLbGGkxgqWQLHKHxLfCe48RBb3L9/I+TUC1VnV9ninI4FLfY3Ie0k7LBmZZquILZNqtO4y+5mn0n7cifNlWRL9xBsJzXgr7nDPhnHUGii87E/bZZ6B72knwzj4Nwdmnwjj7pSif8zJERx2FiAalP3Y8fgqC767WUTc8WMUa5mmsjIOU4nufUofxi0euh/ORD2Lqne9F6cLLUT/1XLQuex3GP/phFN/yRnQl6KFRbDGosCm5bpEqbNzCbJe63KyguphcJblkmvdBaHFlPMeknGvXq48LcU7QHthA74I6LqSx4caIK4dYyICuk91uALVxrL/uahRPp3fxiU+j8YPvIaBE6Beej82v/U2Ea0apk7n7uL1NqgGT/eRyFnWrT93T8tuAWGnWFrjV5MnEcw88BO+G6xG6Dgq01GbEbb2zg3X33gT3CEaL116PPf9wLRyqGM2sQZtcx0huMw5742uAV5yCWRr8iQYjQYd6/xCDozqN4cQYimXqYWqZlk7DWm9wUX6JQ9/5Dto7t2GcnscBpulwCuOf+TAF43S0fvYAgj+4Cp2pOgqjx6Bww7VKd7ev/TIaN/8IFvW7eBfCk+yhvTihom6H8U2gL8mZVcmuSC9XDfIrleI0dpUivMkxOBso0RvWo7BuDZx1a2Ey19ZMMxgYhz4ziQLpNsuSjLUzDMnH4E9PqLPg+LrxqPH1YhB84mAXZVpVa2oTxt/+ehT/+AoYFx6NaPcu1O64H4fuuBmdHY9SWBbhjOuoNhbh3/8A2rfeAfuhR6Af8NWumvjo+1G66FJo1hTXuoomQ6rAbKmLquvLX//SUtkrx/OLU1wR1ylEPjO0XhtCT5IljEir01XIrkZWkjdQkgsZSQ5bXMUjjsHI0VvUG0WdiNs6NOhTW7TQ3JoB/VFKrXrSS6lTB95M6rDJ9TF3aBbhg3fSOyhRkuWlRkryr9o47L6blSRr134F+z/3eRjHnoyJd78D5ctfjiAkex55GNGtD8G8cweeNg5g6qQj4dSq9HS4Gzj31o7diPbOYWxqBubGMxG+7jQYJx0Od2EJ+OYdeOGnP4Gxaze2/M3vQjv1PDSXSfLfUpLdX0uSs4f2eYnOMFnWYzlzU9w3TDiKyRPLmCyGrkDPwaXll9e4Ql+ODAP13K3JsNh1DPWANPJ8lOj3yosmmsyKblPL61LP0oo7DNIdumOJuujsJJPvvRnekZugXfMVHPrWt1H6vfejfMkl9GpCLN70Q4Q/+TG9hSeVsXXHDfUUw+fYHre4RVfOpF8dMjAJGCaPMsDonHwsqq+/FOFvnElJ13Dgn7+DxW99H1v+4t2wtr6CTL4fPpncnWoMMvkaMvmWH6nngerxE1nSe91YBSOiLobzTUA8s9gFoaTFkM37DcXVk8FUOKmqY1ytlJTG6PRPkEFTJiozJRTH6NpXODiDEHuGExuPUBoFnLUGwsNII91knOyW2qjS5TLp9NucTDtoKvdOjj017gPR6F2UMH7pFRh5xbk0kG34X/4mnr3mH9Da/iwXzkV3gh4KfWlDL6DgVDFWGEW1UENJL8LWGcCU5QXCBVj3P4j61V9D4f5tMGshpi+i4T3pCCzd+TDaN/4IeOAXdOcoLFGJ7iX9Z3k1Qc5X5Lw8YZq86iA8SyGrIlYCOX9XT3ViP1BUdDZPcW4JDiThoxpQkbhleEGpE1/aXWRg0DLRWQzQWmJQ0iGLXE0xLyKucxNY4rrR5/XpTwdNqqeGQbVSQKNNvWiPIKAEdvUWpd6h0ZRvwHJHcHWNmcNhveoN8MdrCO/7D3jXXU+/eA4LJhcwop7meHUGZS5vJuQYspHDAoOQgoGA8yxwHgs2F6BQhv70Lixe/09wf3YXWo89gvYSdfeN92H/l65D58e3wavwbrVRFLtFmFxAYY7mc/dxHGGluv+UqeSDlAfejhoCfcOXgezKvNgqpeCv2YDRc87DyIW/icIrL0TpVRej8upLMHbpa1Rd5cJXwr/gXHQY9pX2upg8/xwEF56DiVddhgOXvwb26cehTrkRndctmozGuDCCk2Ujpx2L4oYxqoU69l37fcxXDKxnkGE36RPzDgo+F1yLAwhPAgmLoTdDpJBqsKBeJ6B7yOCj5XBcSvXijudRv+67aH35JhQee5b7JIBBr4cxLV1CF5WA4/pdtJX90OHQvmSZm+dIyqKV+JZhMiuzA+U79ItDwTvzRIx98K1Y96fvx7qrfhdrP/17mL7qQ5j5Hx/C+j95Pyqf+BAm3v8mLr6GdmsBpQ++CtpV78XEH38Yx33sj7Du4pfDrJYRdrqY89po0HjK9JRUbhhHt+zCve8X6N79MBlF14/SY1H3uyVxDT26dx6ln0kLuDgSEnOjk8nytFqnm7ievnCBEasnYT8juOZzu2Du34syQ9Wo6JHRoVqkgCG2xoBnwfHQqHKuRkRV05fUlNkr8WQZ3wh9Jmc7JERplO20GkSNJkJuvebsQSwe2o+Fg/sxt28Pmgf2oj1L72GOxmzPXrpO3P6jVCv7XoC+7yC0gwso7F5EfZ6uF6fjUBer520cU969E49ao0TBaKD7gztQYf8avZVu1GEUSD9cvo5LKa741Ms++9M3N2isTNGDnLvymujFNApcEEaNZerZcdaXuYgS6KEUoa41OR7QtqiiaODVqRqZa3ZaKFGiLfbJ8iLlCGuSujjv0XO49vN1x0SaPOdLDuSzVlH0bgohb7wcdNAtVbHp765F8aWn4Lk//Z/wf/Qj+Etkxsg0po85Ggc0bjOaWvnaQ9juolIqqxf89MBAs3MA0TNPUd95KB93PHxrHE5URIOSMuseRO3xXzGIaaLIqG7p0UUcfu8/wT/+OLbhzbd3Y+fZvwNXW8AU1X9THkN5BtpFqgRKnu+Vafgo92GXriJDeMemCjEpz1whnXnExeS2tz0TXAe4BXoKtSICLponp3oHqUZGfUx0XBQYBQYTa2F/5r/AJvc7374VS3f9LHZBmSRP/QTZafLPkkdTCWR5qByDlMnyKlPK1GGMfjEmq3fIeOMH3abyIUsm5VK+FWWZaJIJBkOvsEbdbbfUQVIVI9CbBrryXnAVqJsFzHDLe3YTZRTpJ3ex5uFvwT/iaHoOlObZ5/DLd/1XMqeNaZN0SwyTzmiuS6b4lMYypTSA/8JumI0FzFSqHDvCgkeGlyrwOh2MTEzDWTMDd80Euuun6GFUOYYHbaEFa5FhdvMZ2M/ugneojnKHHtDLT0DZD9B8ajv8+fmYYQZ3WcJkkWRx5YRDZsYDERjAhzFZIM/oF2OyyQBAXr8Q265TVCx6LLK6gW2gzq1ZkuPKGi9icRtSAsltaC1uc+q9g+YCnKVR6scQS6UGSowVoj0aRnd8G+21m3BYnW07S9j14P2wlmZhTYzCapHxRgGevEIQtOmLF1GYX8DBW29F6xfbsNFylCezSCaPrN+ApTNPxeSxx8DZuIERKCPN8VEYJselaokovaFFL+fQr2D86mk0Hqfv/e/bMbdnN6ZCD03bpSqj0EjgQSZLAKI8ixyTY1Yt56HxnvL4VfIakzAy1iLDG8obFOpLKpTIkcvPg75+Aq2b7kJ7x07qUbpevAY9JTUJcQd9SlHAyXhUQ/J6lHy5RQIFk1uXThcDBtnaDGKKFlq8kbIrX4bgApEeypYeoa977imwJkfp0vFmLEaDx21BZdNmmMcxslu7FqWjtqBw+Ho4mzagtnEL68aw+PA2BJzTWKihwTmPnnY6Cm+4GP4bX4vKqSdQekcRLbbh7dzN3bIT3f0vwOXCyWu67sZxmFuOwMSRR8LauJ6qgTtx70G6qvTUqe4cejsBg6gl+jwV2g5xOTsOXUSqr/Q96BQGeHj39JZIFz9PPW7OEHKM9gMyiGwo0sFf84+fBs7aitmPfREH7riVE5ijPmF0pQ7Z435x9z6ufpQk/pcSB/Cu4anD8RLH6XYYtZVKmD79JTBPORoN7pASV1BzLPXw1ebNhtz+JaoYj0YworGKQqqHUh3ud2+G88QzDFC4SBddQBfxEiyddhTCXXMMoZ9HY9vjCLfvgrOwSP9e3mn2EfDC05PrsWfLJEonnIyp007iopIfzz0H/8f3ovlvtyNszqLKhWsWgUN09da5DHAYICwwopzgnONvMsrtxLlAig8wOW/4srjOm2nRyhq1KWz++8/CeulW7Pv4NZj/8S2odPfRorO/0jkE9uv1THAx2P3hYiQux/gh6mVxIqrcKRaZDCaNIbhvm2h0uxjReRuGuHTU91QNPj0Pp1hAq9thO6oGqh+fHkjB5J7b3cG+j74Np7717cD0GOYefRzR125EuOcFNHbtgb7UpJdiwqQq69AmtN0uJnjJpuPA5y4pnfISjJ9zFrRTjkFEfd245W7suemfsXb7AfiMVGVhCuLFVIpoteh9UCDQlYOJGPI8TLgS6xeVc0tn3Y8UzKLG1eoqSdIoVQXPhlOqkbkRRuZdqhH6o6YEEEwUAlFRKS65YnIvsa20SXBJE40QozSe8vRF5za1KuK6yds7dYxQyju8uke/2OS21Rh8dD0JwUO4ssMoIGVGimV5M7PTgH/JWdj45rcxzF8D/OwRtP72a2jcdgs62x9hYLKE4gi3eo39uc/9Aq/P4GZ+hqqwTC/ruaex+K0bsfSlbyK8/ylEI2PA5efDOXsr3BqNNY2tE3CxuUDCVpu7V16HWIlvglMnj1Ens5IcF9JKkhzalGLRsfUQa846F+XNm6EzHN718C9gUkJ8pXM5eZ+6OEnyjK2fBwg8htNpkroEFzqdDkZdwjzGXdw18namhO0aGetwHk2jg4i635Zr0Itoeh3YRe4eMnWcEu7KN0lHq1hk6D7xf/8nJmeORv3xJzD7uS/Cf+rn3AnyHT26Y9wJtMGUeq4w9b96lM+NzKWlyhIG8l7pcRgHl7B0YBY4eh2sNeMoMlAKdh/iIuynxMXPNHWZO1VVl46D3ZfXZTzsqQt1ntun9RqmuW90UaZb1qDUrnn7WzHzwd9BwO3y2A++Q0t8DwoMW+XFQ4FUWag8HZOr3QNVnRASnBtB3gaET0b4EReU9UVOvECmG1yEOgVKa9JV1ArUoRJ2e5go2Zjd9kuUFpqwrSksLtFA/f7bMfLBK9F5/gC6f/llLN53K2o2TaA7zn4GvRFhKK/I69n0m0u0M/JAIaAhnufOcVwuKun1iTLqXR/rzjgNk3/0Dkr+DOo33Y7FL3wdZYvRYNTgwlFdWRYiqgoxnHnmpvCiTBYQXLYpFTNXLoI7OYmj3vceFF99PloFrvzefeD8yJJkNZO+PUYq6H/5J8vgFORL9MrwSlDEPzl8lce1pjSiWgjkOx0N1tHoRbZOKx/AocQ9cz1VwV0PYspxscMt4RU//Q53nYPFr30D3tV/B63M61IHL8kRIPWTBF3igsnjfzG0jMAJvAbduQ4ZbPBvHQ3fs888jSKjUWekgIk3/Ca0d7wPzX07ceCvrkXtyR1o+3XahBK9KHpd8q7BKl9B66kLuX1JwxoJlP0SdQ+NX4EGZ6GBcOch8oNTlSPFaUZHTMbYJMyxCZijkiZZnuglfXSc4TTxlJbgis7cZt+oWIEzNoXi+FroZIpeY7vxafi1MRQn2K4yAmtqAu54lX4uXboS3b/7H4T/xA6qjedRfsNlqF1wMfQGJe3T/wfzzV0MXopwWpRiU7wXGisumMP7jR+Kye8FyLetaLyCLv1hHZW3XYzCFRfRtayh/eSz6HYb8KgWrbMvBKaKiBqziO7ahhJ33ZwWoNzlwnEksS8p5Hmo/cfk5sgQJosErcBgwYsShdGqdvQOijR2XpsGZ/NGaOvXwpwc53aNzxv6Qkokg8uJWIzLR0zIXkOne6QO2ympBkPygFIlc5Lfi/PIGDkrD1waXVOnA8WcYlgj7j3yBPXkPlRbHP/qT6L0qkthkznbL3sLvGlpP4pCYwTVwizq1KHliMqA9kO8FDlYkq+fVenF1O1JlM97KcY/8ma1mOHN92Lu81+litqP+sYRzLzjw3Becz7c+7bhwB9ehRp3cIPcHadOX9QacPTlXwvu5f8+vommglKsmDx441lcLLgsmVjL9Ht6KskZLvMCZUKmzk6qvfrMjiU1LPeo6l9CZ2YoHzsuqNrkI8Xl7IM2nImqjfOQgxzbsRnKMxLjAtcWKjj0vU9i4uRTof/LTZj76CfhH12D1rYZszuMCA+hKO9UGPRvO2Q+79cuyPm2i06BO/I1b8CG33olnMMmuXBP4Zmv/BNsGs6y5eKQ38TEJZdj/E//G4In9mDPx/+EbuBB9YWhIhdq3lpEkX56CnkeZoQ8hpVcEV+8g4S5El7K8y75/l6JeqlSqXL1eZEqb4q5JMEZM8eJuD4yAoNJcn00xVmf4KBnIEkbqwBjy3GdKsKcGIEzMQaHUaA5UaXhddSZb4O7ZKkQoLGuws0vz/ZeQI32Xjwal1s9ZFTZPus02PMRw/cWutUuwjKNaNtDVef1X3Mh1r75YjjTo/B+vg3PXP0PaD32OJoFefHdQrlpor1vQb0BapQdlCZHuLtc9W0DjzzRqDqyvMrjy5icQp7RsjZqVchgFcNLTumW39CU38GM6A7JqZevc6tLIi55KEnq6XlQK6rkU2rFZVJl4vLaV5fmPp862USvQzyDwOKOc4hY8pqYJkfz6lVbn+7cjFFApeWhJYws0qmiejGZly4+FWvf827Yb3o1XVDxw+W+Qvrd9Czedjkm3/ImSvA0JXgHnr76BnTplk7QRatxa4ctH8XSOI0ngx6RUPr8kCcuDMzkdz/kCCFMFLLwKs83gR6T0wZZYraDXCDdBqqeKeQqinRLEs9CDkkk9M7+yYmEymmFNerdfmIP5jonqWjM5U/pLEkJ3qsXH4+J/FZ9DCZuft6oPKTlzdLrmXBNunzcdeUi9SSNG/WlXXRQfsnhqJ20FZUPXAn3Xa+Fv2So53it97wOhbe+Hs7MRoT3PU5P5V+BJ35Ffcvghovp1Nsq+nRFgp34pcOQzHU7TUo1Z8hFlrMWn9HfSnyTNFSSU2KKC0hgkDJUVEaaC6MlgVtT48XSpDMSk9O4NIm7ZKWJDJJcztstMjqu5yIxkpJcJeLix6Y4BZkLww8ar4gSCvqwcmRqMvKTE796cwluq0Vvwkb58PXKpZRTuNlDBzH/kwfhbnsa0cwEJj7wdhRfezlKr389Rq78LUZ8BXTvegSda79NCf4l9byOUYbtnfk6IhpWk6rGdzsw1kzwfskIhtHRUoMCxcBJDvOFR5yDwDC+CWSYvFySU5C6kFFWj7FM+bZsoTwI+a0gZZ6YcylUkr/0l60k6urnCc4k0ipyr1N9KOlWeJxLvdhFroeMpM6rfVnodE5cYN110dixC12qEuO4jShZBY7Lrcx22s8exfznr4P77FOwauOYfu+VmHrrG+E4JXhP/BL1a65H96H7lMdgFwuoz8ub9Ra8UgGLHqXWCFA8/nD4DIywdw7mHJlMjSUurUix/ILCMEj501cXSZ6FLBPVps2ojDwE8iyMnr0niWIruDwbC5hL8uj+ufJKreRJ6tUxyQ96yNNmyfNJ6uWBqoTa1Agcm8xTr+4yxOYdyD2OhSb0nz4BWzbVURvhrJ9myO7Drha5AwIy8XYcYHDiPvYsrPWU9IlJdO97FLPXfRXdp+7BwWoT3AqoMLDoyg87lWt0KQN4XgsODWrppCPhciE7O3dDZ5xA50TZCHEIZGcOCFwON650qnEwQuYJKeZhzMhBnAyWkaVS8ISmhhM8KUuSv2yeENVKpt8S6n1bSAZIkwLVKM4VJHjSPB1NFdVcSGWy6k0sUD2sOe9l8Ken4Rys49B9j2DUp2mkJ1EObCzu2IPm/Cz9aw/urx7D8zfeiPbPH0DRplEtaqhQyzdp6LrVKmzdgblABk/WUDv/TPivfBX02RYa//J92M8/R33MHaXOPyhgcgwgJ14rgHGlXbkqmXE86QRSie3nKovLw3D+pVtcGCi4MloJnm79tJ3kPZoq06hxHPU2jhpvOS6tRDdLnoJafKa24anXaK2xcVS2ngismYS2fTe6u55lmC2nFQ7sCiPEXTtRfOppGrqH0dz+K5RKJbS5HYq++MziUlPHc+dUuxEaHDc67UTU6IFgbC2Cex7E/E23ouzRUeRE5GV2xjXKkKu5MqWQxXvqIg+pyPdzlalynpZCtrwSLvBitLRuoJ2kYfVJe5/+9AiN4qGvfBvhk4/B3DKK0T98MxaOPxYtbQpu1YNj0h2rN+AyQmwdXKCSl7ORMo1ngR7KFBZo2MbI6amog4WFPYiO3YTx334z9CNOhP7MTjx36y3wGnPoRFReVFc+1ZA8lZXfjsvOJcVTMN5JdSGrQNYnVYOrkOJxk369QJ82mAusRmMhyTJ1hFxxed9cOdtfvd1Ew+QGHTSefBqTF56KYPN6aGsPg72XBvLRB6lTaNTomrXpO8t5lHg2RZM4w3k9MFGkx1Kmz+/WO2gffwRmPvJOjJxyBrQDLTR/cCMO/Oxu6n6O5ZPJHEd+EdFhFCnuZKhUXB+ycxzKZIHsDQieJedpw3KBLC4wUF7Wrj/JYWOk5yppOd+mUA/RXFeiD9tA9Px+VF26hluPRenIo1Beu0leicZCw0fz+UXMoISabqPTatAj7MKiL+nQqM1y+xuj61C76CJU3n4ZrHO3wm3W0fzurZj/4fdhNRqoMLqTaC+kPja5QPLdb1F7Pv2edC4p9OZ6R21dZIhBo9ZKb3P4jQyWBfLtBtsPp2XbsJAgAhLwJGgC2T68j177YWOVKVH7TEZl1JFrFygU02vgXHIeyle8GoUjjkD94F74Tz2D1k8fUs8AjQOH0NJbaE/ZlGwNZQYbpZNOgbPlRBQ2HYnC4WvgLu7DoW/fiLkf3IbCnv2oVErKfVQhIw1dJE9lqJQdm+G9/DBhBrJz7DE5Njt9yN9I5n6W0QTUYLlyCvn2WRoLCSKefgxD26WeDSFbn+IFMuDA/v0YKVUwYpXQqHexUCpi5lWvwNgFZyE4/yzULBuB/ELLbjJ8do7+N330koOWuIQVHbX1m2GVR9TzRf2Jndj3zzeic889KDYWGZhw9WyDzPRRYLBC50L9LpP85E6pXKa7J9/R5XwSPg7M8cWYLJDiadVw2mAukMdXorHAj+VMFkhxOSUUSMv5NiGtvejGYofJcnAw8LBY0uiuFbCxOoX2+S/H2ElHwThhC1ozY/AZaBQYcBTpFweerg6YSnvr0B7Zhueov4Mnn0L5ieeUaxgxCgwdDc2AUaZhqWhWolSDxq8lbyxZVnL4z7lk+Nib623VtZE86lEvbAxpINC/MfXZy9Vnv9nQPgKCr0brgULT8QUyeLYdIT+GRJW2vKwiERgNWouGKbBpdLqB+l5gt1gGJmoI1k0wGJnB2Ib1qFaqCOlby5cvlw7MwV5oqjeQ5vY+D92TJ+Qcjx5LhxGpYenq5yjkQEw8CuGWHP96ck7OQnKaLjNWuUA6R+22yholyb8ekwdzgT4ea/ThtBhfjZYgSTa8nUBaztfzLnuwrD+3tEnp63B7C1NMSnGpVoVRsBlNMqrruig2ufXJcHG95JQx/c9n1DEC6+RHnlJYNn42X43JSplLxSqMzpdTiPGVXZhhucAyfDVaBtJytl7OQlbrIzo0fb0qYJKXIOUsRHS9uH8lFlZjsk6dvNr40ieFPA/7lAToTqs/hXPwLEg5rcvS4vqkkEC+XTbP1/VAykNo2T4CK/XPthugEZeDJbKQuDCcLh/dkBIT5RnliD520j5lXnasYXVpnsIALeGfgNT1mZxpJJA2TDsP0BJ8sH71dtlcIFuXph7kaClky9k8Wy+Qp5FLSpeKRCqPwKcBo/owqE5D6my/7bJdzMw4xX1FigWExauOn4EeLfkT6DE5bZrtmDZKITtgHs8Uk3IyxpA8X5fCQDmDZ/sIrNZ/GE1wn4xVx57CRKmTDyb5gVSTqkDaCHPj/0hM+sRJ4MUkOVsvMIDzb5m6yIM0UvkKg/chvtBgXQzD6lJIaflcQa6f0PJjDatLoVfPTKJe+d8l1FunZKQ6QiXTPRLlO/bZMbJMVZCU85C/bracxVdWF1k8YXQKK7XLQ5624virtGMhQQbhPzU2eSSvmAmr1NN1QejjRgxC5I0lYXQKyxhMkJpVx8/AMJp2a3lG+fnqPDmzYunFBOIttpymPnvtOCBR1S6pyuLqfGQFmhpd6CvQUlyVFN7PeyBnoJlifv4ixXLT8ideRnw93nPCCJE2qZN59tgkQ6pmqYcQjyl1w/AU0munOacWS7Ak9U1RIUrK4CTKxzKawGAffkhZJalL8rj7QHmQFt+8QpnECxiGy0XyeS/FNUNB7k2No9qqxqpOXkLvdWe9jCCmTnI1mqgREsVgSkWv7Qp4PileMOurixTUgEwJnu3AjxgXSGgKVJ/s4P26XrtMOU8bGCeFHN5rk4WBNkzJE+0eLnmasuU8viItztNrp1IvkMdXo/WYnEpbP/Ejk8eMSsoKSfC0KLiaYK5Octa/2PgqF1DlPj7A3JSWrU/rspCWk3ZD2ya0HqxEk6qkWmAlZgpIOa3L0npMVpVJUheQNqqcywWyeFzITSo3RgpqnJXH76mZDB4vUJpSWlw/KHVxOUsfaLcKLa1fiSbj5xmYx9OyQJ7Wl2RJpPUvlF58MB9OkxHkg2WVEprkiiTtVihnctme6sc5Uly1I1G27UCZH5IzqfaSZAxJqk1STvMXo2XrV6ClMIyZKaRMTfEU+jpZKpMkg6sbSPK4PrloUpelqfq0ToEQJOtPVkF2fEK2fqB/isswaXvVN8mTcq+9gKInNEJ27HzbLC0/xko0GSaF1RidhZgG/H+cF+mAqJB/ggAAAABJRU5ErkJggg==;" parent="1" vertex="1">
          <mxGeometry x="290" y="330" width="49" height="49" as="geometry" />
        </mxCell>
        <mxCell id="rdqZ7Gep4cqUkF6THJ5y-8" value="" style="outlineConnect=0;dashed=0;verticalLabelPosition=bottom;verticalAlign=top;align=center;html=1;shape=mxgraph.aws3.lambda_function;fillColor=#F58534;gradientColor=none;" parent="1" vertex="1">
          <mxGeometry x="495.5" y="540" width="49" height="42" as="geometry" />
        </mxCell>
        <mxCell id="rdqZ7Gep4cqUkF6THJ5y-11" value="" style="shape=doubleArrow;whiteSpace=wrap;html=1;" parent="1" vertex="1">
          <mxGeometry x="240" y="400" width="80" height="20" as="geometry" />
        </mxCell>
        <mxCell id="rdqZ7Gep4cqUkF6THJ5y-12" value="" style="shape=doubleArrow;whiteSpace=wrap;html=1;" parent="1" vertex="1">
          <mxGeometry x="400" y="400" width="80" height="20" as="geometry" />
        </mxCell>
        <mxCell id="rdqZ7Gep4cqUkF6THJ5y-15" value="" style="shape=doubleArrow;whiteSpace=wrap;html=1;" parent="1" vertex="1">
          <mxGeometry x="560" y="400" width="100" height="20" as="geometry" />
        </mxCell>
        <mxCell id="rdqZ7Gep4cqUkF6THJ5y-16" value="" style="shape=doubleArrow;direction=south;whiteSpace=wrap;html=1;" parent="1" vertex="1">
          <mxGeometry x="510" y="485" width="20" height="50" as="geometry" />
        </mxCell>
        <mxCell id="rdqZ7Gep4cqUkF6THJ5y-37" value="Mobile client" style="sketch=0;outlineConnect=0;fontColor=#232F3E;gradientColor=none;strokeColor=#232F3E;fillColor=#ffffff;dashed=0;verticalLabelPosition=bottom;verticalAlign=top;align=center;html=1;fontSize=12;fontStyle=0;aspect=fixed;shape=mxgraph.aws4.resourceIcon;resIcon=mxgraph.aws4.mobile_client;" parent="1" vertex="1">
          <mxGeometry x="30" y="379" width="60" height="60" as="geometry" />
        </mxCell>
        <mxCell id="rdqZ7Gep4cqUkF6THJ5y-39" value="Mobile client" style="sketch=0;outlineConnect=0;fontColor=#232F3E;gradientColor=none;strokeColor=#232F3E;fillColor=#ffffff;dashed=0;verticalLabelPosition=bottom;verticalAlign=top;align=center;html=1;fontSize=12;fontStyle=0;aspect=fixed;shape=mxgraph.aws4.resourceIcon;resIcon=mxgraph.aws4.mobile_client;" parent="1" vertex="1">
          <mxGeometry x="30" y="280" width="60" height="60" as="geometry" />
        </mxCell>
        <mxCell id="rdqZ7Gep4cqUkF6THJ5y-40" value="Mobile client" style="sketch=0;outlineConnect=0;fontColor=#232F3E;gradientColor=none;strokeColor=#232F3E;fillColor=#ffffff;dashed=0;verticalLabelPosition=bottom;verticalAlign=top;align=center;html=1;fontSize=12;fontStyle=0;aspect=fixed;shape=mxgraph.aws4.resourceIcon;resIcon=mxgraph.aws4.mobile_client;" parent="1" vertex="1">
          <mxGeometry x="30" y="490" width="60" height="60" as="geometry" />
        </mxCell>
        <mxCell id="rdqZ7Gep4cqUkF6THJ5y-45" value="" style="edgeStyle=orthogonalEdgeStyle;html=1;endArrow=block;elbow=vertical;startArrow=block;startFill=1;endFill=1;strokeColor=#545B64;rounded=0;" parent="1" edge="1">
          <mxGeometry width="100" relative="1" as="geometry">
            <mxPoint x="80" y="310" as="sourcePoint" />
            <mxPoint x="180" y="360" as="targetPoint" />
          </mxGeometry>
        </mxCell>
        <mxCell id="rdqZ7Gep4cqUkF6THJ5y-47" value="" style="edgeStyle=orthogonalEdgeStyle;html=1;endArrow=block;elbow=vertical;startArrow=block;startFill=1;endFill=1;strokeColor=#545B64;rounded=0;" parent="1" source="rdqZ7Gep4cqUkF6THJ5y-37" edge="1">
          <mxGeometry width="100" relative="1" as="geometry">
            <mxPoint x="90" y="408.5" as="sourcePoint" />
            <mxPoint x="160" y="409" as="targetPoint" />
          </mxGeometry>
        </mxCell>
        <mxCell id="rdqZ7Gep4cqUkF6THJ5y-48" value="" style="edgeStyle=orthogonalEdgeStyle;html=1;endArrow=block;elbow=vertical;startArrow=block;startFill=1;endFill=1;strokeColor=#545B64;rounded=0;" parent="1" target="rdqZ7Gep4cqUkF6THJ5y-1" edge="1">
          <mxGeometry width="100" relative="1" as="geometry">
            <mxPoint x="80" y="520" as="sourcePoint" />
            <mxPoint x="180" y="520" as="targetPoint" />
          </mxGeometry>
        </mxCell>
        <mxCell id="EV70No52hWZ1tvIpQMA0-1" value="Kinesis Data Pipeline" style="whiteSpace=wrap;html=1;" vertex="1" parent="1">
          <mxGeometry x="274.5" y="210" width="270" height="60" as="geometry" />
        </mxCell>
      </root>
    </mxGraphModel>
  </diagram>
</mxfile>
